# xmcd
#
# Track frame offsets: 
#        150
#        16707
#        32170
#        51946
#        76417
#        94671
#        114667
#        150940
#        170512
#        187824
#        209556
#
# Disc length: 3202 seconds
#
# Revision: 0
# Processed by: cddbd v1.5.2PL0 Copyright (c) Steve Scherf et al.
# Submitted via: ExactAudioCopy v1.3
#
DISCID=800c800b
DTITLE=Frim-Fram Quartet - Let's Talk
DYEAR=2015
DGENRE=Blues
TTITLE0=Baby Let's Talk!
TTITLE1=Can't Afford You Baby
TTITLE2=Key To Your Heart
TTITLE3=That Ain't Right
TTITLE4=Stick With Me Baby
TTITLE5=You've Been Had
TTITLE6=Live Would Be Great
TTITLE7=Give Me A Chance
TTITLE8=Just A Fool For You
TTITLE9=You Really Hurt Me Bad
TTITLE10=You Make Me Howl
EXTD=
EXTT0=
EXTT1=
EXTT2=
EXTT3=
EXTT4=
EXTT5=
EXTT6=
EXTT7=
EXTT8=
EXTT9=
EXTT10=
PLAYORDER=
